<svg width="24" height="24" viewBox="0 0 24 24" fill="none" xmlns="http://www.w3.org/2000/svg">
<path d="M7 2.625C7 2.45924 6.93415 2.30027 6.81694 2.18306C6.69973 2.06585 6.54076 2 6.375 2C6.20924 2 6.05027 2.06585 5.93306 2.18306C5.81585 2.30027 5.75 2.45924 5.75 2.625V3.25H4.5C3.83696 3.25 3.20107 3.51339 2.73223 3.98223C2.26339 4.45107 2 5.08696 2 5.75L2 7H22V5.75C22 5.08696 21.7366 4.45107 21.2678 3.98223C20.7989 3.51339 20.163 3.25 19.5 3.25H18.25V2.625C18.25 2.45924 18.1842 2.30027 18.0669 2.18306C17.9497 2.06585 17.7908 2 17.625 2C17.4592 2 17.3003 2.06585 17.1831 2.18306C17.0658 2.30027 17 2.45924 17 2.625V3.25H7V2.625ZM22 19.5V8.25H2V19.5C2 20.163 2.26339 20.7989 2.73223 21.2678C3.20107 21.7366 3.83696 22 4.5 22H19.5C20.163 22 20.7989 21.7366 21.2678 21.2678C21.7366 20.7989 22 20.163 22 19.5ZM17.625 10.75H18.875C19.0408 10.75 19.1997 10.8158 19.3169 10.9331C19.4342 11.0503 19.5 11.2092 19.5 11.375V12.625C19.5 12.7908 19.4342 12.9497 19.3169 13.0669C19.1997 13.1842 19.0408 13.25 18.875 13.25H17.625C17.4592 13.25 17.3003 13.1842 17.1831 13.0669C17.0658 12.9497 17 12.7908 17 12.625V11.375C17 11.2092 17.0658 11.0503 17.1831 10.9331C17.3003 10.8158 17.4592 10.75 17.625 10.75Z" fill="#B0B0B0"/>
</svg>
